<svg xmlns="http://www.w3.org/2000/svg" width="1024" height="1024" viewBox="0 0 1024 1024">
<g>
<path d="M 387.00 857.95 C373.46,859.18 339.72,859.11 325.50,857.82 C299.96,855.50 271.19,847.54 248.50,836.51 C228.86,826.95 215.81,817.76 199.66,802.08 C162.92,766.41 140.83,718.28 133.55,658.00 C128.26,614.33 128.27,546.87 133.56,497.50 C141.55,422.99 161.51,359.00 193.69,304.75 C252.32,205.91 347.40,146.44 471.00,131.28 C491.13,128.82 539.21,128.85 560.50,131.35 C618.92,138.21 674.10,157.46 719.35,186.76 C780.55,226.40 826.02,282.34 856.49,355.50 C884.42,422.58 896.32,494.94 894.66,587.50 C894.02,622.91 892.50,644.33 888.98,667.38 C873.25,770.50 813.42,836.64 720.22,853.92 C701.99,857.30 689.36,858.32 666.00,858.28 C622.03,858.21 588.43,851.50 549.75,835.07 C527.52,825.62 523.89,824.68 512.11,825.24 C501.52,825.74 499.25,826.41 478.95,835.02 C449.09,847.69 419.92,854.96 387.00,857.95 Z" fill="rgb(88,116,212)"/>
<ellipse cx="430" cy="470" rx="38" ry="44" fill="#fff"/>
<ellipse cx="595" cy="470" rx="38" ry="44" fill="#fff"/>
<circle cx="435" cy="478" r="20" fill="rgb(5,5,5)"/>
<circle cx="590" cy="478" r="20" fill="rgb(5,5,5)"/>
<path d="M 531.50 621.08 C525.10,624.23 523.73,624.52 514.03,624.76 C499.30,625.12 490.90,621.81 481.30,611.85 C474.99,605.31 470.00,592.71 470.00,583.32 C470.00,580.36 474.17,576.00 477.00,576.00 C478.15,576.00 480.20,577.10 481.55,578.45 C483.46,580.37 484.00,581.95 484.01,585.70 C484.03,595.23 490.88,604.85 500.76,609.22 C510.66,613.60 525.10,611.11 532.84,603.70 C537.17,599.55 541.00,591.99 541.00,587.60 C541.00,581.20 544.13,576.11 548.12,576.03 C549.00,576.01 550.97,576.98 552.49,578.17 C555.13,580.25 555.22,580.62 554.78,587.53 C553.86,601.81 545.16,614.35 531.50,621.08 Z" fill="rgb(5,5,5)"/>
</g>
</svg>